:SAMPLES-PER-SECOND 30
:FULLY-SPECIFIED
:DEGREES
450
root  13.0434 40.6179 8.53768 9.93689 76.9928 11.4944
RightUpLeg  -7.2715 -9.31104 -7.60988
RightLeg  10.874 3.47867 1.67429
RightFoot  -0.771662 -0.118684 1.25838
RightToes  0.000481921 0.542163 -0.142578
Spine  7.43232 -0.974234 -2.4097
Spine1  -0.345342 -1.57181 2.37062
HEad  19.4461 22.0848 -2.97581
LeftShoulder1  4.18709 -6.64498 -35.141
LeftArm  -9.46277 34.6936 -33.9812
LeftForeArm  -177.911 -46.0241 -170.248
LeftHand  -0.25398 0.0180481 5.50724
RightShoulder  3.43874 5.30567 33.0823
RightArm  7.64161 -10.6545 40.075
RightForeArm  162.389 56.7963 164.11
RightHand  -0.609865 0.640513 -11.8188
LeftUpLeg  2.16467 7.51668 4.93722
LeftLeg  2.77475 28.4837 -4.25584
LeftFoot  -0.507949 0.374054 -3.91436
LeftToes  1.06247e-005 4.65869e-005 -8.65511e-006
451
root  13.0715 40.6252 8.53787 8.70874 76.4846 10.1389
RightUpLeg  -7.27473 -9.12412 -7.36935
RightLeg  10.5215 3.82149 1.82859
RightFoot  -0.495679 -0.110163 1.13274
RightToes  0.000481921 0.542163 -0.142578
Spine  7.35829 -0.745723 -1.4762
Spine1  -0.031574 -1.09562 1.24874
HEad  18.9534 21.5478 -2.77691
LeftShoulder1  4.05671 -6.19464 -35.6894
LeftArm  -11.6698 36.0463 -34.6122
LeftForeArm  -178.419 -45.5263 -170.381
LeftHand  -0.25398 0.0180481 5.50724
RightShoulder  3.41433 5.21015 33.2278
RightArm  7.39654 -11.3556 40.3372
RightForeArm  161.238 56.9059 163.952
RightHand  -0.682196 0.872009 -12.7414
LeftUpLeg  2.14402 7.67551 5.18529
LeftLeg  2.91262 28.8453 -4.19715
LeftFoot  -0.660434 0.382554 -4.03953
LeftToes  1.06247e-005 4.65869e-005 -8.65511e-006
452
root  13.0881 40.6301 8.52393 7.67743 75.8993 8.98773
RightUpLeg  -7.36595 -8.86226 -7.12796
RightLeg  10.263 4.12157 1.90715
RightFoot  -0.203764 -0.09487 0.898107
RightToes  0.000481921 0.542163 -0.142578
Spine  7.32777 -0.700245 -1.02909
Spine1  0.381102 -0.958808 0.840451
HEad  18.0791 21.6965 -2.9806
LeftShoulder1  3.99877 -5.95631 -36.1138
LeftArm  -13.7668 36.9698 -35.8981
LeftForeArm  179.816 -44.3385 -170.655
LeftHand  -0.25398 0.0180481 5.50724
RightShoulder  3.36833 5.16038 32.9238
RightArm  7.46844 -11.6999 40.8813
RightForeArm  160.684 56.9671 163.87
RightHand  -0.744331 1.15203 -13.3303
LeftUpLeg  2.08962 7.82988 5.38149
LeftLeg  3.11301 29.2851 -4.12943
LeftFoot  -0.835103 0.390858 -4.13418
LeftToes  1.06247e-005 4.65869e-005 -8.65511e-006
453
root  13.0924 40.6392 8.50155 7.08722 75.2088 8.27826
RightUpLeg  -7.51373 -8.64322 -6.98586
RightLeg  10.0086 4.55225 1.98006
RightFoot  0.100004 -0.0863225 0.765197
RightToes  0.000481921 0.542163 -0.142578
Spine  7.35727 -0.858645 -0.981012
Spine1  0.658646 -1.12779 0.851392
HEad  17.4584 22.7669 -3.53066
LeftShoulder1  4.14286 -6.17716 -36.6205
LeftArm  -14.671 36.6247 -36.9104
LeftForeArm  177.421 -43.0565 -170.911
LeftHand  -0.25398 0.0180481 5.50724
RightShoulder  3.38804 5.2407 32.7921
RightArm  7.91307 -11.6225 41.1823
RightForeArm  161.243 56.9547 163.924
RightHand  -0.725685 1.19571 -12.9124
LeftUpLeg  2.16825 7.88282 5.43609
LeftLeg  2.94079 29.9314 -4.21814
LeftFoot  -0.858486 0.400952 -4.24943
LeftToes  1.06247e-005 4.65869e-005 -8.65511e-006
454
root  13.0757 40.6515 8.48215 6.83728 74.8229 7.97656
RightUpLeg  -7.53321 -8.59112 -6.9653
RightLeg  9.71184 4.86641 2.07807
RightFoot  0.35847 -0.0890029 0.804521
RightToes  0.000481921 0.542163 -0.142578
Spine  7.38003 -1.26702 -1.62793
Spine1  0.973809 -1.7498 1.69097
HEad  17.4253 24.4107 -4.28707
LeftShoulder1  4.50501 -7.003 -36.735
LeftArm  -15.715 34.0484 -36.9397
LeftForeArm  176.863 -42.6849 -170.995
LeftHand  -0.25398 0.0180481 5.50724
RightShoulder  3.47333 5.47306 32.7421
RightArm  8.60324 -11.1474 41.3264
RightForeArm  161.367 57.0168 163.898
RightHand  -0.682073 1.01916 -12.4702
LeftUpLeg  2.36022 7.89294 5.45469
LeftLeg  2.45592 30.309 -4.47796
LeftFoot  -0.69936 0.406288 -4.2948
LeftToes  1.06247e-005 4.65869e-005 -8.65511e-006
455
root  13.0176 40.6636 8.47411 6.99628 75.2498 8.12292
RightUpLeg  -7.39599 -8.74136 -7.04452
RightLeg  9.40779 4.55743 2.15407
RightFoot  0.537198 -0.0940672 0.879758
RightToes  0.000481921 0.542163 -0.142578
Spine  7.59525 -2.09327 -3.32542
Spine1  1.1948 -3.14597 3.99657
HEad  17.4495 26.4939 -5.56219
LeftShoulder1  4.63479 -7.72201 -35.1837
LeftArm  -17.7925 28.0786 -35.9219
LeftForeArm  177.598 -43.8941 -170.727
LeftHand  -0.25398 0.0180481 5.50724
RightShoulder  3.56622 5.84628 32.1954
RightArm  9.4801 -10.3179 41.7704
RightForeArm  160.308 57.4049 163.581
RightHand  -0.690474 0.91178 -12.8189
LeftUpLeg  2.33719 7.88833 5.48881
LeftLeg  2.0684 29.9 -4.70923
LeftFoot  -0.339205 0.392491 -4.05756
LeftToes  1.06247e-005 4.65869e-005 -8.65511e-006
456
root  12.899 40.6787 8.49329 7.79883 76.5216 9.0202
RightUpLeg  -7.07353 -8.94492 -7.21151
RightLeg  9.12041 3.4074 2.11609
RightFoot  0.660536 -0.0937218 0.870892
RightToes  0.000481921 0.542163 -0.142578
Spine  8.48694 -3.24024 -5.75516
Spine1  0.766785 -5.11504 7.34548
HEad  17.1176 28.9664 -7.38628
LeftShoulder1  4.19728 -7.58185 -31.7578
LeftArm  -19.4217 17.4755 -33.4013
LeftForeArm  176.424 -49.8779 -169.133
LeftHand  -0.25398 0.0180481 5.50724
RightShoulder  3.63988 6.24178 31.397
RightArm  10.372 -9.53377 42.2921
RightForeArm  159.735 57.9571 163.201
RightHand  -0.716967 1.05752 -13.0238
LeftUpLeg  2.11201 7.76323 5.44851
LeftLeg  1.78406 28.7857 -4.80609
LeftFoot  0.310805 0.35996 -3.54769
LeftToes  1.06247e-005 4.65869e-005 -8.65511e-006
457
root  12.6962 40.6957 8.57385 9.03473 78.9133 10.7022
RightUpLeg  -6.27891 -9.14271 -7.44816
RightLeg  8.87541 1.15511 1.9451
RightFoot  0.705965 -0.0899112 0.809034
RightToes  0.000481921 0.542163 -0.142578
Spine  10.0695 -4.27113 -8.7793
Spine1  -0.0729473 -7.1258 11.2627
HEad  17.0564 30.8812 -8.64061
LeftShoulder1  3.68392 -7.39164 -27.6883
LeftArm  -20.1615 0.859979 -29.1086
LeftForeArm  156.398 -67.6144 -149.576
LeftHand  -0.25398 0.0180481 5.50724
RightShoulder  3.67852 6.41271 31.1426
RightArm  10.7653 -9.32078 42.0161
RightForeArm  159.838 58.1618 163.084
RightHand  -0.714649 1.31733 -12.5057
LeftUpLeg  1.92232 7.53956 5.43247
LeftLeg  1.55013 26.6582 -4.77333
LeftFoot  1.20574 0.326023 -3.03174
LeftToes  1.06247e-005 4.65869e-005 -8.65511e-006
458
root  12.3871 40.6976 8.73068 22.5352 83.3629 24.9026
RightUpLeg  -4.92969 -9.65404 -7.74863
RightLeg  8.76184 -2.8931 1.83785
RightFoot  0.588465 -0.0901445 0.811658
RightToes  0.000481921 0.542163 -0.142578
Spine  12.2311 -5.13848 -13.3613
Spine1  -0.7477 -9.53024 16.9092
HEad  17.6675 31.4326 -8.47179
LeftShoulder1  3.59011 -8.87808 -22.7844
LeftArm  -20.5134 -21.151 -24.1932
LeftForeArm  47.1074 -71.1848 -37.988
LeftHand  -0.25398 0.0180481 5.50724
RightShoulder  3.63631 6.29124 31.1705
RightArm  10.5008 -9.37077 40.6756
RightForeArm  158.026 58.038 163.005
RightHand  -0.724925 1.4159 -12.5079
LeftUpLeg  1.16497 7.36055 5.64808
LeftLeg  2.02867 22.3331 -4.43961
LeftFoot  2.10765 0.293407 -2.59724
LeftToes  1.06247e-005 4.65869e-005 -8.65511e-006
459
root  12.0271 40.6686 8.90626 40.3703 89.8132 43.0396
RightUpLeg  -3.71648 -10.758 -8.12914
RightLeg  8.85665 -8.3627 2.09254
RightFoot  0.318803 -0.098423 0.94179
RightToes  0.000481921 0.542163 -0.142578
Spine  15.6747 -6.27182 -19.3941
Spine1  -2.25199 -12.9159 25.0041
HEad  17.6331 32.0621 -8.21072
LeftShoulder1  3.37805 -11.6326 -15.5567
LeftArm  -20.8845 -40.5445 -19.9175
LeftForeArm  15.4334 -26.4869 -3.57827
LeftHand  -0.25398 0.0180481 5.50724
RightShoulder  3.50926 6.15965 30.3532
RightArm  10.5266 -8.79542 39.1463
RightForeArm  154.841 58.2553 162.594
RightHand  -0.744895 1.17768 -13.2962
LeftUpLeg  -0.972423 7.09908 5.81474
LeftLeg  3.41467 16.1893 -3.79961
LeftFoot  2.90806 0.245345 -2.10499
LeftToes  1.06247e-005 4.65869e-005 -8.65511e-006
460
root  11.7841 40.642 9.00079 162.153 84.1824 164.088
RightUpLeg  -3.75267 -11.9583 -8.46963
RightLeg  8.92248 -12.3953 2.6269
RightFoot  0.181949 -0.106645 1.07218
RightToes  0.000481921 0.542163 -0.142578
Spine  19.7334 -7.64908 -24.0164
Spine1  -5.48469 -15.9873 32.3873
HEad  15.695 34.8381 -9.64296
LeftShoulder1  2.50691 -12.5945 -7.92289
LeftArm  -25.874 -47.7364 -16.4214
LeftForeArm  15.9045 -0.560348 -4.23357
LeftHand  -0.25398 0.0180481 5.50724
RightShoulder  3.38929 6.23906 28.7988
RightArm  11.7598 -7.90593 38.4179
RightForeArm  155.564 58.953 162.208
RightHand  -0.658082 0.681692 -12.621
LeftUpLeg  -3.5144 6.67581 5.55237
LeftLeg  4.07467 11.7822 -3.45897
LeftFoot  3.70642 0.201434 -1.69512
LeftToes  1.06247e-005 4.65869e-005 -8.65511e-006
461
root  11.7936 40.6831 8.97337 157.909 84.4136 158.188
RightUpLeg  -5.39434 -12.1236 -8.54382
RightLeg  8.44375 -12.1943 2.94048
RightFoot  0.602669 -0.0983989 0.980955
RightToes  0.000481921 0.542163 -0.142578
Spine  21.2738 -8.39067 -25.0596
Spine1  -8.63305 -16.483 34.4944
HEad  12.8191 38.4049 -12.0823
LeftShoulder1  1.66189 -9.83435 -4.65059
LeftArm  -27.5225 -44.2258 -17.2804
LeftForeArm  12.5846 -7.10351 -3.66836
LeftHand  -0.25398 0.0180481 5.50724
RightShoulder  3.34963 6.37377 27.8973
RightArm  13.2797 -8.77261 38.7678
RightForeArm  161.59 59.2865 162.522
RightHand  -0.496862 0.591296 -9.76023
LeftUpLeg  -4.25941 6.18652 5.12796
LeftLeg  2.07939 12.8069 -4.07992
LeftFoot  4.52532 0.223638 -1.79917
LeftToes  1.06247e-005 4.65869e-005 -8.65511e-006
462
root  11.9988 40.7535 8.8468 141.514 89.3032 140.506
RightUpLeg  -7.25333 -10.9559 -8.31207
RightLeg  7.54162 -8.47469 2.87731
RightFoot  1.44276 -0.0747108 0.754943
RightToes  0.000481921 0.542163 -0.142578
Spine  19.3923 -7.53979 -22.3039
Spine1  -9.35386 -14.0429 30.2142
HEad  11.2919 38.9971 -13.1176
LeftShoulder1  1.36768 -6.33395 -6.21102
LeftArm  -28.2129 -35.5881 -21.0193
LeftForeArm  14.1653 -37.3316 -7.86889
LeftHand  -0.25398 0.0180481 5.50724
RightShoulder  3.4074 6.43589 28.2773
RightArm  13.0907 -12.517 39.7254
RightForeArm  165.74 58.6843 163.273
RightHand  -0.432609 1.05052 -7.92896
LeftUpLeg  -2.64568 6.09338 4.7683
LeftLeg  -1.49159 17.9658 -5.24642
LeftFoot  4.90373 0.326201 -2.49681
LeftToes  1.06247e-005 4.65869e-005 -8.65511e-006
463
root  12.2272 40.7987 8.66092 31.3024 84.0805 30.2292
RightUpLeg  -7.56489 -9.65612 -8.02442
RightLeg  6.31164 -4.51835 2.86998
RightFoot  2.35695 -0.0654145 0.676955
RightToes  0.000481921 0.542163 -0.142578
Spine  16.6485 -5.72489 -17.312
Spine1  -7.56467 -10.7379 23.3423
HEad  11.5774 36.0596 -12.4471
LeftShoulder1  1.65938 -6.15782 -9.73712
LeftArm  -28.2048 -24.4567 -24.655
LeftForeArm  37.2795 -69.9043 -31.8522
LeftHand  -0.25398 0.0180481 5.50724
RightShoulder  3.57673 6.68299 29.1282
RightArm  11.0193 -16.567 40.6432
RightForeArm  162.186 57.9762 163.402
RightHand  -0.513183 0.97014 -9.47086
LeftUpLeg  -0.533236 6.01895 4.60654
LeftLeg  -3.51462 23.0706 -6.04353
LeftFoot  4.54151 0.392217 -3.00945
LeftToes  1.06247e-005 4.65869e-005 -8.65511e-006
464
root  12.4144 40.8174 8.45277 12.7491 81.4762 12.0252
RightUpLeg  -6.85377 -9.03717 -7.71003
RightLeg  4.95941 -2.06886 3.00775
RightFoot  3.14894 -0.0894158 0.871667
RightToes  0.000481921 0.542163 -0.142578
Spine  14.8587 -4.53093 -12.8948
Spine1  -5.08586 -8.69577 18.6594
HEad  11.7227 33.2671 -12.0628
LeftShoulder1  2.50346 -7.95258 -14.9585
LeftArm  -26.8139 -9.94271 -27.6736
LeftForeArm  141.644 -75.9438 -135.961
LeftHand  -0.25398 0.0180481 5.50724
RightShoulder  3.83579 7.21056 29.8313
RightArm  9.51034 -17.4645 40.4354
RightForeArm  156.326 58.1003 162.818
RightHand  -0.635864 0.751668 -12.1278
LeftUpLeg  -0.0177999 6.48601 4.89737
LeftLeg  -2.1465 25.4818 -5.77084
LeftFoot  3.42669 0.339557 -2.7756
LeftToes  1.06247e-005 4.65869e-005 -8.65511e-006
